<?xml version="1.0" encoding="utf-8"?>
<!-- Generator: Adobe Illustrator 24.0.2, SVG Export Plug-In . SVG Version: 6.00 Build 0)  -->
<svg version="1.1" id="Layer_1" xmlns="http://www.w3.org/2000/svg" xmlns:xlink="http://www.w3.org/1999/xlink" x="0px" y="0px"
	 viewBox="0 0 1000 1000" style="enable-background:new 0 0 1000 1000;" xml:space="preserve">
<style type="text/css">
	.st0{fill:none;stroke:#010202;stroke-width:4;stroke-miterlimit:10;}
	.st1{stroke:#010202;stroke-width:4;stroke-miterlimit:10;}
	.st2{font-family:'RadioGrotesk-Regular';}
	.st3{font-size:120.8528px;}
</style>
<g>
	<ellipse class="st0" cx="500.33" cy="499.56" rx="485.88" ry="245.9"/>
	<text transform="matrix(1 0 0 1 141.8477 443.2656)" class="st1 st2 st3">NEÓN</text>
	<text transform="matrix(1 0 0 1 551.4883 642.2891)" class="st1 st2 st3">GONZ</text>
	<g transform="translate(0.000000,1280.000000) scale(0.100000,-0.100000)">
		<path class="st1" d="M6423.36,9184.15c-48.43-1.71-125.47-4.4-171.2-5.87c-45.73-1.71-114.46-3.91-152.86-5.14
			c-38.4-1.22-105.41-3.42-149.19-4.89s-109.08-3.67-145.52-4.89c-36.2-1.22-109.32-3.67-162.15-5.38l-96.12-2.93l-514.09-523.38
			c-671.1-683.09-710.97-723.69-710.23-724.42c0.73-0.73,77.28-3.67,286.64-10.76c78.02-2.69,187.59-6.6,243.35-8.56
			s104.68-3.67,108.35-3.67c7.58,0,44.51,36.93-730.29-732.49l-290.55-288.59l65.55-1.71c35.95-0.73,133.78-2.69,217.18-4.4
			c83.4-1.47,151.88-3.18,152.12-3.42c0.49-0.49-156.28-173.89-348.02-385.69c-191.74-211.8-349.25-386.18-349.98-387.89
			c-1.71-4.4,11.98-20.54,16.39-18.83c1.96,0.73,168.27,92.94,369.3,204.95c201.04,112.26,591.37,329.68,867.01,483.27
			c275.88,153.59,502.1,280.03,502.84,280.77c0.73,0.98,0,6.85-1.96,13.45l-3.42,11.74l-109.32-1.47
			c-244.82-3.18-498.19-5.87-498.93-5.14c-0.98,0.98,78.75,64.57,781.65,625.12c289.33,230.63,526.07,420.17,526.07,421.15
			c0.24,1.22-159.95,2.2-355.61,2.45l-355.85,0.73l231.61,216.45c1005.19,938.17,915.43,853.55,915.43,863.83v9.29l-24.95-0.24
			C6522.66,9187.33,6471.79,9185.86,6423.36,9184.15z"/>
	</g>
</g>
</svg>
